<svg id="Layer_1" data-name="Layer 1" xmlns="http://www.w3.org/2000/svg" viewBox="0 0 613.5 729"><defs><style>.cls-1,.cls-3{fill:#eff6f9;}.cls-1,.cls-2{opacity:0.5;}.cls-4{fill:#dfeef4;}</style></defs><title>bg-detail</title><path class="cls-1" d="M0,430s149-19,158,76S0,729,0,729Z"/><g class="cls-2"><path class="cls-3" d="M461.61,0S325.5,13.33,325.5,131.87,457.78,238,471.83,303.61s-45.79,75-25.54,112.58,94.36-18.73,167.21,61.15V1.52Z"/><path class="cls-4" d="M458.64.37,414.19,0s-178.6,14.59-178.6,144.37,173.57,116.23,192,188-60.08,82.07-33.51,123.25,123.82-20.51,219.42,66.95V477.34c-72.85-79.88-147-23.53-167.21-61.15s39.58-47,25.54-112.58S325.5,250.41,325.5,131.87C325.5,23.73,438.76,3.15,458.64.37Z"/></g></svg>