<?xml version="1.0" encoding="utf-8"?>
<!-- Generator: Adobe Illustrator 20.1.0, SVG Export Plug-In . SVG Version: 6.00 Build 0)  -->
<svg version="1.1" id="Layer_1" xmlns="http://www.w3.org/2000/svg" xmlns:xlink="http://www.w3.org/1999/xlink" x="0px" y="0px"
	 viewBox="0 0 527.3 361.4" style="enable-background:new 0 0 527.3 361.4;" xml:space="preserve">
<style type="text/css">
	.st0{fill:none;stroke:#FFFFFF;stroke-width:10;stroke-miterlimit:10;}
	.st1{fill:#FFFFFF;}
	.st2{fill:#FCFCFC;}
	.st3{fill:#BF291A;}
</style>
<title>logo-bw</title>
<rect id="rect4" x="5" y="5" class="st0" width="517.3" height="351.4"/>
<path id="path8" d="M263.6,180.9"/>
<path id="path10" class="st1" d="M35.3,33.2h93.4c42.6,0,86.4,10.1,86.4,61.2c0,19.4-9.7,38.4-29.1,44.6v2c24,8.5,39.1,26,39.1,52.3
	c0,45.3-42.2,60.8-81,60.8H35.3V33.2z M117.1,118.1c11.6,0,24.8-1.2,24.8-16.3c0-16.3-15.1-15.1-26.7-15.1h-5.4v31.8h7.4
	L117.1,118.1z M109.8,201.4h8.9c13.2,0,32.2-0.4,32.2-18.6c0-18.6-20.5-18.2-33.3-18.2h-7.8L109.8,201.4z"/>
<path id="path12" class="st1" d="M287.7,33.2h77.5v74.4h49.2V33.2h77.5v221.3h-77.5v-77.1h-49.2v76.7h-77.5V33.2z"/>
<g>
	<path class="st2" d="M337.3,288.2h-0.8v7.4v0h1.2c2.7,0,3.9-1.5,3.9-3.9C341.6,289.8,340.4,288.2,337.3,288.2z"/>
	<path class="st2" d="M264.8,288.2c-3.9,0-4.3,7-4.3,9.3c-0.4,2.3,0,9.3,4.3,9.3c3.9,0,4.3-7,4.3-9.3S268.7,288.2,264.8,288.2z"/>
	<path class="st2" d="M318.3,288.2h-1.2v7.4v0c3.1,0,4.7-0.8,4.7-3.9C321.8,289.8,321,288.2,318.3,288.2z"/>
	<path class="st2" d="M361.7,288.2c-3.9,0-4.3,7-4.3,9.3s0.4,9.3,4.3,9.3s4.3-7,4.3-9.3S365.6,288.2,361.7,288.2z"/>
	<path class="st2" d="M97.8,288.2c-3.9,0-4.3,7-4.3,9.3s0.4,9.3,4.3,9.3s4.3-7,4.3-9.3S101.6,288.2,97.8,288.2z"/>
	<path class="st2" d="M53.2,288.2H52v7.4c3.1,0,4.7-0.8,4.7-3.9C56.7,289.8,55.9,288.2,53.2,288.2z"/>
	<path class="st2" d="M223.7,288.2v18.2c5,0.4,6.2-5.4,6.2-8.9l0,0C229.9,294,228.8,288.2,223.7,288.2z"/>
	<path class="st2" d="M138.1,288.2c-3.9,0-4.3,7-4.3,9.3s0.4,9.3,4.3,9.3s4.3-7,4.3-9.3S141.9,288.2,138.1,288.2z"/>
	<polygon class="st2" points="393.9,290.6 393.1,294.8 391.9,302.2 396.2,302.2 394.7,294.8 	"/>
	<path class="st2" d="M435,288.2v18.2c5,0.4,6.2-5.4,6.2-8.9l0,0C441.2,294,440,288.2,435,288.2z"/>
	<path class="st2" d="M470.2,288.2c-3.9,0-4.3,7-4.3,9.3s0.4,9.3,4.3,9.3s4.3-7,4.3-9.3S474.1,288.2,470.2,288.2z"/>
	<path class="st2" d="M35.3,266.5v61.6h456.6v-61.6H35.3z M53.6,299.9h-1.2v11.6h-6.2v-27.9h6.2c1.2,0,10.5-0.8,10.5,8.1
		C62.9,297.2,59,299.9,53.6,299.9z M84.2,311.5H78v-12h-6.2v12h-6.2v-27.9h6.2v10.9H78v-10.9h6.2V311.5z M97.8,311.9
		c-5.4,0-10.9-3.9-10.9-14.3s5.4-14.3,10.8-14.3s10.9,3.9,10.9,14.3C108.6,308,103.2,311.9,97.8,311.9z M126,288.6h-4.6v22.9h-6.2
		v-22.9h-4.7v-5l15.5,0V288.6z M138.1,311.9c-5.4,0-10.9-3.9-10.9-14.3c0-10.5,5.4-14.3,10.9-14.3s10.8,3.9,10.8,14.3
		C148.9,308,143.5,311.9,138.1,311.9z M171.4,301.8h-10.5v-5h10.5V301.8z M196.2,311.1h-5l-8.9-27.9h7l-0.1,0.3l3.5,13.6l1.2,4.7
		c0.4-1.5,0.4-3.1,0.8-5l3.9-13.6h6.2L196.2,311.1z M213.7,311.5h-6.2v-27.9h6.2V311.5z M223,311.9h-5.4l0-0.4v-27.9h4.6
		c1.2,0,14-1.5,14,14.3C236.2,306.1,232.7,311.9,223,311.9z M251.2,288.6H245v6.2h5.4v5H245v6.2h6.2v5h-12.4v-27.8h12.4l0,0.4V288.6
		z M264.8,311.9c-5.4,0-10.8-3.9-10.8-14.3s5.4-14.3,10.9-14.3c5.4,0,10.8,3.9,10.8,14.3C275.7,308,270.2,311.9,264.8,311.9z
		 M297.8,301.8h-10.1v-5h10.1V301.8z M318.3,299.9h-1.2v11.6h-6.2v-27.9h6.2c1.2,0,10.5-0.8,10.5,8.1
		C327.6,297.2,323.7,299.9,318.3,299.9z M342.3,311.9l-5.4-12.8v12.8h-6.2v-0.4v-27.9h6.2c3.9,0,10.9,0.4,10.9,8.1
		c0,3.1-1.2,5.8-4.3,7.4l5.4,12.8H342.3z M361.7,311.9c-5.4,0-10.9-3.9-10.9-14.3c0-10.5,5.4-14.3,10.9-14.3
		c5.4,0,10.8,3.9,10.8,14.3C372.6,308,367.1,311.9,361.7,311.9z M398.1,311.5l-1.1-4.7h-6.2l-1.2,4.7h-6.2l7-27.9h6.9l7.4,27.9
		H398.1z M425.3,304.1c0,3.1-0.4,8.1-9.3,8.1c-5.8,0-8.9-2.3-8.9-7.8v-20.9h5.8v18.2c0,1.9-0.4,5.4,3.1,5.4c3.1,0,3.1-1.9,3.1-4.3
		v-19.4h6.2V304.1z M434.2,311.9h-5.4l0-0.4v-27.9h4.6c1.2,0,14-1.5,14,14.3C447.4,306.1,443.9,311.9,434.2,311.9z M456.3,311.5
		h-6.2v-27.9h6.2V311.5z M470.2,311.9c-5.4,0-10.8-3.9-10.8-14.3c0-10.5,5.4-14.3,10.8-14.3c5.4,0,10.9,3.9,10.9,14.3
		C481.1,308,475.7,311.9,470.2,311.9z"/>
</g>
<g id="g64">
	<path id="path58" class="st3" d="M214.4,120.4c0,8.9,7,16.3,13.2,22.9c-17.8,8.9-36,18.2-36,38c0,17.8,20.2,32.6,45,32.6
		c18.2,0,33.7-8.5,46.5-16.7l15.1,15.1H325c0,0-24-23.6-26.7-26.4c2.7-2.7,19-16.7,19-16.7l-15.5-9.7c0,0-13.6,12-16.3,14.3
		c-2.3-2.3-23.6-22.9-27.1-26.4c12.4-7,24.4-14.3,24.4-27.9s-14.7-24-33.3-24C228.8,94.8,214.4,105.7,214.4,120.4z M195.8,181.3
		c0-17.1,16.7-25.6,34.5-34.5l4.3-2.3l-3.5-3.9c-6.2-6.2-12.4-12.8-12.4-20.2c0-12.4,12.4-21.3,29.8-21.3c16.3,0,28.7,8.5,28.7,19.4
		c0,11.6-11.6,18.2-23.6,25.2l-3.5,1.9l34.5,33.3c0,0,14.7-12.8,16.7-14.7c1.5,1.2,5.4,3.1,7.8,5c-3.5,3.1-18.2,15.9-18.2,15.9
		s17,16.7,22.5,22.1h-14.3L282.6,191l-1.5,1.2c-11.6,8.5-27.1,17.1-45,17.1C214,209.2,195.8,196.8,195.8,181.3L195.8,181.3z"/>
	<path id="path60" class="st3" d="M229.9,116.5c0,5.8,3.9,9.7,7.8,13.6l6.6,6.6l2.7-1.6l3.1-1.9c7.4-4.3,16.3-8.9,16.3-17.8
		c0-7.8-7.8-13.6-18.2-13.6C238.1,102.2,229.9,108.4,229.9,116.5z M240.8,127.4c-3.1-3.5-6.2-7-6.2-10.8c0-5.4,6.2-10.1,14-10.1
		c6.6,0,13.6,3.5,13.6,9.3c0,6.6-6.6,10.1-14,14.3c-1,0.6-2,1.1-3.1,1.6L240.8,127.4z"/>
	<path id="path62" class="st3" d="M231.1,154.1c-11.2,5.8-25.2,13.2-25.2,25.6c0,11.6,13.2,22.1,27.9,22.1
		c15.1,0,27.9-8.5,38.4-15.5l3.1-1.9l-35.7-34.5L231.1,154.1z M238.8,154.9c1.9,1.9,26,25.6,29.5,28.7c-9.7,6.2-21.3,13.6-34.5,13.6
		c-12.4,0-23.6-8.5-23.6-17.8c0-10.1,12-16.3,22.9-21.7C233,158,236.9,155.7,238.8,154.9L238.8,154.9z"/>
</g>
<path id="path66" class="st3" d="M283,194.1c-12.8,8.9-28.3,17.4-46.5,17.4c-22.1,0-42.6-12.8-42.6-30.2c0-18.6,17.4-27.1,35.7-36.4
	l1.9-0.8c-6.6-7-14.3-14.3-14.3-23.6c0-14,13.6-23.6,31.8-23.6c16.3,0,31,8.9,31,21.7c0,13.2-13.2,20.5-25.6,27.5l30.7,29.8
	l16.3-14.3l11.6,7.4l-18.6,16.3l24.8,24h-20.6L283,194.1z M245.8,133.6c8.2-4.6,18.2-8.9,18.2-17.8c0-6.6-7.4-11.2-15.9-11.2
	c-8.9,0-15.9,5.4-15.9,12c0,5.4,4.6,9.7,8.9,14l3.5,3.5L245.8,133.6z M232.2,155.7c-10.9,5.8-24,12.4-24,23.6
	c0,10.5,12,19.8,25.6,19.8c14.7,0,27.5-8.5,38-15.5l-32.6-31.8L232.2,155.7z"/>
</svg>
